<?xml version="1.0" encoding="UTF-8"?>
<svg version="1.1" xmlns="http://www.w3.org/2000/svg" width="256" height="256">
<path d="M0 0 C5.89854196 11.01986428 11.6086646 22.12763734 17.1875 33.3125 C17.50271606 33.94437225 17.81793213 34.57624451 18.1427002 35.2272644 C20.76179222 40.4794645 23.37565039 45.73426565 25.98937988 50.98913574 C33.07597117 65.23497886 40.17050253 79.46686177 47.63183594 93.52148438 C51.60720791 101.0162359 55.46999008 108.56844315 59.29931641 116.13867188 C60.19545054 117.90387459 61.09730297 119.66618416 62.00439453 121.42578125 C63.3419511 124.02201894 64.66104182 126.62691684 65.9765625 129.234375 C66.38266754 130.01359314 66.78877258 130.79281128 67.20718384 131.59564209 C67.57532196 132.33461731 67.94346008 133.07359253 68.32275391 133.83496094 C68.81045761 134.79157623 68.81045761 134.79157623 69.30801392 135.76751709 C70.31113225 139.00377371 70.27892011 141.62329043 70 145 C68.28602505 147.59486294 68.28602505 147.59486294 65.83311462 150.05577087 C65.38477927 150.51502616 64.93644392 150.97428145 64.47452265 151.44745356 C62.97310798 152.97671299 61.44800282 154.47981201 59.92163086 155.98413086 C58.8379483 157.07730207 57.75575979 158.1719561 56.67495728 159.26797485 C53.73835241 162.23647641 50.78005205 165.18242587 47.81639171 168.12388682 C44.71683724 171.20571154 41.63440682 174.30458724 38.54920959 177.40077209 C33.36540505 182.59730977 28.16702041 187.77891864 22.96020508 192.95239258 C16.94168655 198.93281553 10.9488021 204.93803997 4.96861166 210.95677084 C-0.16763829 216.12479257 -5.31741196 221.27904003 -10.47872251 226.42203432 C-13.56084606 229.49324784 -16.63805244 232.56898725 -19.70314217 235.6572094 C-22.58569653 238.55999386 -25.4848548 241.44510164 -28.397686 244.31749344 C-29.46351068 245.37406683 -30.52343171 246.43663423 -31.57689095 247.50553703 C-33.01707533 248.96487392 -34.47713573 250.40090501 -35.94422913 251.83311462 C-36.75632874 252.64257506 -37.56842836 253.4520355 -38.40513706 254.28602505 C-41.78891795 256.52110097 -44.02039455 256.36825579 -48 256 C-50.38433838 255.23208618 -50.38433838 255.23208618 -52.53222656 254.13916016 C-53.35128479 253.73098053 -54.17034302 253.3228009 -55.01422119 252.9022522 C-55.88093445 252.4523996 -56.74764771 252.002547 -57.640625 251.5390625 C-58.56228455 251.07446625 -59.48394409 250.60987 -60.43353271 250.13119507 C-63.37917913 248.64216071 -66.31445722 247.13383807 -69.25 245.625 C-71.1764491 244.64848736 -73.10352767 243.6732155 -75.03125 242.69921875 C-82.85941911 238.73311701 -90.66291085 234.72405625 -98.40841675 230.59870911 C-115.13412533 221.69779186 -132.16636921 213.38264892 -149.125 204.9375 C-155.07883231 201.97241745 -161.03198189 199.00597921 -166.98348618 196.03622627 C-169.35203915 194.85518835 -171.72178122 193.67656076 -174.09158325 192.49803162 C-175.52612016 191.7825771 -176.96060206 191.0670123 -178.39501953 190.35131836 C-179.05352905 190.02464676 -179.71203857 189.69797516 -180.39050293 189.36140442 C-184.88615698 187.11384302 -184.88615698 187.11384302 -186 186 C-186.65790203 176.85755859 -185.4444897 167.78537342 -184.3034668 158.73217773 C-184.1205567 157.23782921 -183.93825201 155.74340648 -183.75650024 154.24891663 C-183.2654324 150.22799961 -182.76504687 146.20829715 -182.26214194 142.1888454 C-181.84212657 138.82621765 -181.42633542 135.46307245 -181.01038486 132.09993988 C-180.02959248 124.17178777 -179.040749 116.24466778 -178.04711914 108.31811523 C-177.02251684 100.14310095 -176.01302213 91.96631683 -175.01057118 83.78855938 C-174.1475956 76.75362012 -173.27468533 69.71996118 -172.39389163 62.68723065 C-171.86864777 58.49225106 -171.34736035 54.29687327 -170.8359127 50.1001873 C-170.35569671 46.16290376 -169.86314415 42.22736069 -169.36095047 38.29282188 C-169.17869337 36.84817141 -169.00086264 35.4029547 -168.82774925 33.95718002 C-168.59112417 31.9868243 -168.3370663 30.01858525 -168.08207703 28.05052185 C-167.94472987 26.94797278 -167.80738272 25.84542372 -167.66587353 24.70946407 C-166.93382146 21.73071706 -166.54912621 20.67471317 -164 19 C-161.29053593 18.33412647 -161.29053593 18.33412647 -157.94947815 17.91792297 C-156.68374466 17.75393005 -155.41801117 17.58993713 -154.11392212 17.42097473 C-152.70822097 17.25216046 -151.30248868 17.08360536 -149.89672852 16.9152832 C-148.41810058 16.72873951 -146.9396131 16.54107965 -145.46125793 16.35238647 C-141.441516 15.84274689 -137.41993049 15.34934315 -133.39777493 14.85916543 C-129.18226233 14.34306175 -124.96844311 13.81346837 -120.75437927 13.28569031 C-113.66781751 12.40024167 -106.580059 11.52494551 -99.49145508 10.65600586 C-91.31887926 9.65410218 -83.14815588 8.63810311 -74.97833687 7.61397868 C-67.10422377 6.62711066 -59.22908311 5.64870606 -51.35337639 4.67464256 C-48.01089187 4.26119933 -44.66874635 3.84515804 -41.32684517 3.42702675 C-37.37720126 2.93336885 -33.42669318 2.44727835 -29.47543144 1.96674728 C-28.03369405 1.79027685 -26.59225015 1.61138722 -25.15115356 1.42975807 C-16.72059033 0.36912143 -8.4988522 -0.24274184 0 0 Z " fill="#2E4456" transform="translate(186,0)"/>
<path d="M0 0 C6.64001667 -0.21118492 13.27845645 -0.36776775 19.92108154 -0.46887207 C22.19531908 -0.51098231 24.46931775 -0.56905746 26.74273682 -0.64318848 C29.98820664 -0.74558303 33.22985131 -0.78971936 36.47668457 -0.82116699 C37.45704681 -0.86444122 38.43740906 -0.90771545 39.44747925 -0.95230103 C46.05496689 -0.93424124 46.05496689 -0.93424124 48.95530701 1.95497131 C50.5233658 4.26930095 51.82856376 6.59802015 53.08605957 9.09289551 C53.69715576 10.10247314 54.30825195 11.11205078 54.93786621 12.15222168 C55.45212158 13.05432373 55.96637695 13.95642578 56.49621582 14.88586426 C57.08781494 15.91856445 57.67941406 16.95126465 58.28894043 18.01525879 C59.2094519 19.63150146 59.2094519 19.63150146 60.14855957 21.28039551 C61.46269588 23.57392754 62.77755654 25.86702198 64.09387207 28.15930176 C64.42408859 28.73480774 64.75430511 29.31031372 65.0945282 29.90325928 C70.33310699 39.02020989 75.71430476 48.05401492 81.08605957 57.09289551 C75.837859 63.45798118 70.06134505 69.24612526 64.21887207 75.05773926 C63.17347632 76.10126629 62.12830382 77.14501703 61.08334351 78.1889801 C58.35333117 80.91520295 55.62032764 83.63840732 52.88665771 86.36096191 C50.08930803 89.1480201 47.29484256 91.93796697 44.50012207 94.72766113 C39.03156263 100.18554632 33.55983512 105.64024109 28.08605957 111.09289551 C16.54115869 104.82226188 16.54115869 104.82226188 11.09777832 101.68273926 C10.07152344 101.09250977 9.04526855 100.50228027 7.98791504 99.89416504 C5.7859904 98.61743006 3.58860231 97.33284804 1.3951416 96.04162598 C-4.15966815 92.78052681 -9.70754757 89.65258195 -15.49597168 86.82336426 C-16.51586182 86.29815186 -17.53575195 85.77293945 -18.58654785 85.23181152 C-20.50138267 84.24993021 -22.44309408 83.31819274 -24.41125488 82.44812012 C-27.32106417 80.90769703 -28.99332755 79.78044253 -30.91394043 77.09289551 C-31.7451536 72.14836657 -31.4750032 67.48745017 -31.08325195 62.50750732 C-30.85692728 59.27981068 -30.81066684 56.05982434 -30.76556396 52.82528687 C-30.71782487 49.47085002 -30.6282188 46.11790329 -30.54162598 42.76428223 C-30.47666729 40.22675765 -30.41678764 37.6891473 -30.3572998 35.15148926 C-30.07822503 23.78545999 -29.56880113 12.44327858 -28.91394043 1.09289551 C-21.10455141 0.65817803 -13.29442717 0.38200796 -5.47631836 0.16625977 C-3.65078592 0.11399237 -1.8253532 0.05819169 0 0 Z " fill="#E0EAF3" transform="translate(99.9139404296875,69.9071044921875)"/>
<path d="M0 0 C1.81339903 0.39320587 3.61618333 0.83881466 5.40429688 1.33447266 C7.22631525 1.65797423 9.05020196 1.97111427 10.87573242 2.27416992 C12.76528406 2.64404352 14.65369219 3.01979871 16.54101562 3.40087891 C17.54646927 3.59922836 18.55192291 3.79757782 19.58784485 4.00193787 C22.75689993 4.62835083 25.92434335 5.26251663 29.09179688 5.89697266 C31.25771011 6.32652573 33.42372493 6.75556687 35.58984375 7.18408203 C40.86251575 8.22830377 46.13389183 9.27887204 51.40429688 10.33447266 C51.40429688 13.33447266 51.40429688 13.33447266 49.87379456 15.23411846 C49.15110886 15.95403878 48.42842316 16.6739591 47.68383789 17.41569519 C46.85925079 18.24440628 46.0346637 19.07311737 45.18508911 19.92694092 C44.26871674 20.83252747 43.35234436 21.73811401 42.40820312 22.67114258 C41.44205402 23.63644577 40.47656443 24.60240944 39.51168823 25.56898499 C36.88621712 28.19531888 34.25158107 30.81228339 31.61524582 33.42770553 C28.86323668 36.16099497 26.11968829 38.90274954 23.37524414 41.64363098 C18.17508186 46.83445894 12.96731766 52.01759058 7.75680256 57.19802409 C1.82598898 63.09533681 -4.09633553 69.00114303 -10.01795006 74.90769041 C-22.20109016 87.05945006 -34.39488778 99.20046025 -46.59570312 111.33447266 C-48.95212715 108.97804863 -49.0963957 107.83319147 -49.74072266 104.61279297 C-49.94077911 103.63127258 -50.14083557 102.6497522 -50.34695435 101.63848877 C-50.65957718 100.04167267 -50.65957718 100.04167267 -50.97851562 98.41259766 C-51.19764618 97.31985535 -51.41677673 96.22711304 -51.64254761 95.10125732 C-52.10509355 92.78520319 -52.56381889 90.46838329 -53.01904297 88.15087891 C-53.71547953 84.61102322 -54.42611642 81.07423969 -55.13867188 77.53759766 C-55.5861416 75.28776757 -56.03278318 73.03777258 -56.47851562 70.78759766 C-56.69097931 69.73115051 -56.90344299 68.67470337 -57.12234497 67.58624268 C-57.41297318 66.09504913 -57.41297318 66.09504913 -57.70947266 64.57373047 C-57.88108917 63.70484192 -58.05270569 62.83595337 -58.22952271 61.94073486 C-59.29898878 54.32888877 -59.29898878 54.32888877 -56.65763855 50.59413147 C-55.7492775 49.66289963 -54.84091644 48.73166779 -53.9050293 47.7722168 C-53.40575928 47.2527951 -52.90648926 46.73337341 -52.39208984 46.19821167 C-50.73998243 44.48920316 -49.06622782 42.80364027 -47.38867188 41.11962891 C-46.22630533 39.93797353 -45.06439071 38.75587346 -43.90290833 37.573349 C-41.46452993 35.09906124 -39.01408041 32.63747723 -36.5559082 30.18286133 C-33.4154125 27.04297484 -30.3181862 23.86389786 -27.23017406 20.67249393 C-24.84251572 18.21794544 -22.42789427 15.791337 -20.00499916 13.37161064 C-18.85149709 12.21105078 -17.70765975 11.04079789 -16.57411766 9.86073494 C-6.58831072 -0.49576716 -6.58831072 -0.49576716 0 0 Z " fill="#80D8E2" transform="translate(191.595703125,132.66552734375)"/>
<path d="M0 0 C13.71928466 6.69466016 32.30153899 23.06202368 37.93884277 37.38543701 C40.42854596 46.85348393 39.12840704 56.80559504 37.87023926 66.37998962 C37.05660017 72.61123074 36.85898615 78.68814779 36.9296875 84.96875 C36.94005998 86.77066989 36.95031537 88.57259047 36.96044922 90.37451172 C36.97768135 92.97884573 36.99933478 95.58250593 37.0401001 98.18658447 C37.18189216 111.36161859 37.18189216 111.36161859 34.609375 114.92773438 C32.47634184 116.31017289 30.38166859 117.11097118 28 118 C25.94475458 119.12661703 23.90412465 120.28011483 21.875 121.453125 C19.58450415 122.72093877 17.29294252 123.98663557 15 125.25 C12.59455185 126.57852299 10.18978966 127.90828426 7.78515625 129.23828125 C7.19831558 129.56260635 6.61147491 129.88693146 6.0068512 130.22108459 C2.57462306 132.12024581 -0.84576365 134.03844003 -4.25390625 135.98046875 C-4.99705078 136.40360352 -5.74019531 136.82673828 -6.50585938 137.26269531 C-7.84119683 138.02547355 -9.17465036 138.79156285 -10.50585938 139.56152344 C-14.78095541 142 -14.78095541 142 -17 142 C-16.38218472 129.19573478 -14.79694006 116.55572982 -13.1640625 103.84765625 C-12.88082188 101.61735443 -12.5979828 99.38700158 -12.31552124 97.15660095 C-11.57420778 91.31125643 -10.82765313 85.46659344 -10.07989502 79.62207031 C-9.3288582 73.74517948 -8.58252059 67.86769237 -7.8359375 61.99023438 C-6.99091354 55.33940968 -6.14549327 48.68863852 -5.29629517 42.03834534 C-3.50767108 28.02843034 -1.74481637 14.0154388 0 0 Z " fill="#FA785E" transform="translate(26,33)"/>
<path d="M0 0 C-1.60778442 4.30391521 -3.65584466 8.3271903 -5.8125 12.375 C-6.19631836 13.09743896 -6.58013672 13.81987793 -6.97558594 14.56420898 C-10.47988348 21.11247054 -14.10140419 27.59375608 -17.75 34.0625 C-18.56368042 35.50665283 -18.56368042 35.50665283 -19.39379883 36.97998047 C-20.43652498 38.81895568 -21.49927343 40.64675242 -22.58374023 42.46142578 C-24.04544897 44.91913479 -24.04544897 44.91913479 -24.87133789 47.42529297 C-25.95200462 50.06718386 -26.68130823 51.30247743 -29 53 C-34.96383199 54.20292498 -40.87419489 54.09336033 -46.9375 54 C-50.58590518 53.96728372 -54.23433233 53.94435192 -57.8828125 53.921875 C-58.81211075 53.91122009 -59.741409 53.90056519 -60.6988678 53.8895874 C-66.87060281 53.86183737 -72.76512776 54.38984575 -78.8671875 55.265625 C-90.74179782 56.75440024 -101.91277091 58.02578173 -112.05908203 50.59277344 C-123.01126095 41.69048155 -134.00378408 30.69401948 -142 19 C-142 18.34 -142 17.68 -142 17 C-124.51974972 14.7781777 -107.03887485 12.56134516 -89.55724239 10.35042572 C-81.43995968 9.32370715 -73.32288869 8.29536628 -65.20629883 7.26318359 C-58.13063294 6.3633789 -51.05458624 5.46664104 -43.97806841 4.57356024 C-40.23227716 4.1007204 -36.48669241 3.62636306 -32.74155998 3.14833069 C-29.21349248 2.69805397 -25.68492841 2.25189283 -22.15594864 1.80882454 C-20.24966753 1.5684178 -18.34393131 1.32370266 -16.43821716 1.07884216 C-10.91798265 0.38954081 -5.56440521 -0.20282547 0 0 Z " fill="#D58651" transform="translate(175,9)"/>
<path d="M0 0 C3.06794161 2.62646924 4.52313005 5.69118286 6.30297852 9.28125 C6.77697334 10.23099197 6.77697334 10.23099197 7.26054382 11.19992065 C8.30559517 13.29721486 9.34215235 15.39859347 10.37890625 17.5 C11.11236296 18.9750645 11.8464177 20.44983177 12.58103943 21.92431641 C14.52059819 25.82057077 16.45330535 29.72018161 18.38421631 33.62072754 C21.81216486 40.54267991 25.25164759 47.45891111 28.69140625 54.375 C29.06035255 55.11738104 29.42929886 55.85976208 29.80942535 56.62463951 C34.69750962 66.45629435 39.68102542 76.22499145 44.8425293 85.91650391 C48.57368367 92.93679216 52.08753143 100.06832363 55.625 107.1875 C56.35006642 108.6426748 57.07532657 110.09775309 57.80078125 111.55273438 C59.53606683 115.03405903 61.268805 118.5166395 63 122 C59.70111763 123.07108158 57.40156098 122.90517353 54.01953125 122.22729492 C53.03170654 122.03346725 52.04388184 121.83963959 51.02612305 121.63993835 C49.96562744 121.42231339 48.90513184 121.20468842 47.8125 120.98046875 C46.71784424 120.7618367 45.62318848 120.54320465 44.49536133 120.31794739 C42.18129239 119.85372947 39.86807472 119.38525078 37.55566406 118.9128418 C34.01577992 118.19071904 30.47307828 117.48398761 26.9296875 116.77929688 C24.68210738 116.32643447 22.4347052 115.87268792 20.1875 115.41796875 C19.12700439 115.20641647 18.06650879 114.9948642 16.97387695 114.77690125 C15.98605225 114.5736171 14.99822754 114.37033295 13.98046875 114.16088867 C13.11317139 113.98466476 12.24587402 113.80844086 11.35229492 113.62687683 C7.80363795 112.68117448 5.59585387 111.82561734 3.42285156 108.81469727 C2.9172168 107.90776123 2.41158203 107.0008252 1.890625 106.06640625 C1.30829102 105.03733154 0.72595703 104.00825684 0.12597656 102.94799805 C-0.4930957 101.83078369 -1.11216797 100.71356934 -1.75 99.5625 C-2.73999773 97.80979994 -3.73004057 96.05712391 -4.72247314 94.30580139 C-5.4133677 93.08635301 -6.10308675 91.86623795 -6.79168701 90.64549255 C-10.67777366 83.76689905 -14.70966119 76.97623597 -18.75 70.1875 C-19.43596703 69.03268967 -20.12184174 67.8778245 -20.80761719 66.72290039 C-24.15161447 60.98783702 -24.15161447 60.98783702 -27.82910156 55.4699707 C-29 53 -29 53 -28.39428711 50.57275391 C-27.93417236 49.72374512 -27.47405762 48.87473633 -27 48 C-26.49799072 47.03368652 -25.99598145 46.06737305 -25.47875977 45.07177734 C-24.88893311 44.0039502 -24.29910645 42.93612305 -23.69140625 41.8359375 C-23.36845078 41.24996292 -23.0454953 40.66398834 -22.7127533 40.06025696 C-21.66584159 38.16339716 -20.61440608 36.26909406 -19.5625 34.375 C-18.84111551 33.07138722 -18.11976151 31.76775757 -17.3984375 30.46411133 C-11.72789656 20.23418443 -5.92710135 10.08360675 0 0 Z " fill="#9286A1" transform="translate(182,13)"/>
<path d="M0 0 C3.73413682 1.09201139 6.98009639 3.03711414 10.33203125 4.984375 C11.36682617 5.58338623 12.40162109 6.18239746 13.46777344 6.79956055 C14.5715332 7.44320557 15.67529297 8.08685059 16.8125 8.75 C18.52421387 9.74350464 18.52421387 9.74350464 20.27050781 10.75708008 C22.65433385 12.1408919 25.03687972 13.5268726 27.41845703 14.91455078 C30.88921461 16.9365788 34.36432683 18.95100694 37.83984375 20.96484375 C39.97672972 22.20544118 42.11345522 23.44631507 44.25 24.6875 C45.73850464 25.55036621 45.73850464 25.55036621 47.25708008 26.43066406 C49.07470916 27.48962373 50.88497313 28.56137947 52.68579102 29.64868164 C55.14567466 31.13527997 55.14567466 31.13527997 58.48046875 32.6015625 C62.75373314 36.66944519 63.04862594 42.03915129 64.0625 47.6875 C64.30363525 48.92306641 64.54477051 50.15863281 64.79321289 51.43164062 C65.29386031 54.00255935 65.78486739 56.57537266 66.26660156 59.14990234 C66.97469167 62.86713967 67.73711217 66.56813499 68.5234375 70.26953125 C68.99501162 72.51297461 69.46637536 74.75646221 69.9375 77 C70.16123291 78.04889404 70.38496582 79.09778809 70.61547852 80.1784668 C70.81326904 81.15082275 71.01105957 82.12317871 71.21484375 83.125 C71.39136475 83.97320312 71.56788574 84.82140625 71.74975586 85.6953125 C72.01212521 88.11167023 71.64363027 89.68336528 71 92 C65.08012314 89.05297377 59.16196636 86.10251339 53.24487305 83.14990234 C51.24101549 82.15045379 49.23679649 81.15172951 47.23217773 80.15380859 C37.4176532 75.26745971 27.61812561 70.3662415 17.9375 65.21875 C5.34902051 58.53231637 -7.43421357 52.22670933 -20.19122314 45.87005615 C-23.56509129 44.18833137 -26.93776058 42.50420563 -30.31054688 40.8203125 C-36.87256077 37.54459221 -43.43584538 34.27142882 -50 31 C-50 30.01 -50 29.02 -50 28 C-49.39341553 27.67427002 -48.78683105 27.34854004 -48.16186523 27.01293945 C-36.44630965 20.71402919 -24.76717229 14.3585009 -13.1875 7.8125 C-11.72171509 6.98455933 -11.72171509 6.98455933 -10.22631836 6.13989258 C-6.75068341 4.16798659 -3.3261589 2.21743927 0 0 Z " fill="#FEDA80" transform="translate(64,153)"/>
<path d="M0 0 C-0.66 1.65 -1.32 3.3 -2 5 C-2.80252197 5.08451416 -3.60504395 5.16902832 -4.43188477 5.25610352 C-24.79664293 7.41937209 -45.12272097 9.84668113 -65.4375 12.4375 C-67.20317322 12.66243134 -67.20317322 12.66243134 -69.0045166 12.89190674 C-80.80943493 14.3987496 -92.61027339 15.9293181 -104.3984375 17.5625 C-105.26020096 17.68142105 -106.12196442 17.8003421 -107.00984192 17.92286682 C-110.92855465 18.46458733 -114.84594755 19.01359156 -118.76147461 19.57788086 C-125.87579818 20.58440146 -132.80616294 21.3188434 -140 21 C-140.66 19.68 -141.32 18.36 -142 17 C-124.51974972 14.7781777 -107.03887485 12.56134516 -89.55724239 10.35042572 C-81.43995968 9.32370715 -73.32288869 8.29536628 -65.20629883 7.26318359 C-58.13063294 6.3633789 -51.05458624 5.46664104 -43.97806841 4.57356024 C-40.23227716 4.1007204 -36.48669241 3.62636306 -32.74155998 3.14833069 C-29.21349248 2.69805397 -25.68492841 2.25189283 -22.15594864 1.80882454 C-20.24966753 1.5684178 -18.34393131 1.32370266 -16.43821716 1.07884216 C-10.91798265 0.38954081 -5.56440521 -0.20282547 0 0 Z " fill="#D19770" transform="translate(175,9)"/>
<path d="M0 0 C2.28455337 0.98716413 4.43845214 2.03974486 6.63720703 3.19580078 C8.10338504 3.9478978 9.56989728 4.6993435 11.03668213 5.45025635 C11.83565163 5.86208412 12.63462112 6.2739119 13.45780182 6.6982193 C18.00120956 9.02475724 22.57682445 11.28665894 27.14794922 13.55810547 C29.20309448 14.58206081 31.2580933 15.60631013 33.31295776 16.63082886 C34.37145809 17.15845699 35.42995842 17.68608513 36.52053452 18.229702 C43.38400065 21.65184048 50.24597984 25.07695955 57.10792351 28.50214958 C63.12054793 31.50320552 69.13388072 34.50282195 75.14892578 37.49902344 C81.00466318 40.41587839 86.85831747 43.33688375 92.71069717 46.26047134 C94.93562539 47.37108643 97.16125775 48.48029202 99.38759995 49.58806992 C102.48144849 51.1277795 105.57279329 52.6724057 108.66357422 54.21826172 C109.58502228 54.67539047 110.50647034 55.13251923 111.45584106 55.60350037 C112.29371155 56.02381027 113.13158203 56.44412018 113.99484253 56.87716675 C114.72440092 57.24102415 115.45395931 57.60488155 116.20562553 57.97976494 C118 59 118 59 120 61 C119.625 63.125 119.625 63.125 119 65 C113.08012314 62.05297377 107.16196636 59.10251339 101.24487305 56.14990234 C99.24101549 55.15045379 97.23679649 54.15172951 95.23217773 53.15380859 C85.4176532 48.26745971 75.61812561 43.3662415 65.9375 38.21875 C53.34902051 31.53231637 40.56578643 25.22670933 27.80877686 18.87005615 C24.43490871 17.18833137 21.06223942 15.50420563 17.68945312 13.8203125 C11.12743923 10.54459221 4.56415462 7.27142882 -2 4 C-2 3.01 -2 2.02 -2 1 C-1.34 0.67 -0.68 0.34 0 0 Z " fill="#B6AD6C" transform="translate(16,180)"/>
<path d="M0 0 C0.86354033 0.3553578 0.86354033 0.3553578 1.74452591 0.71789455 C-3.03899996 6.47417608 -8.17210442 11.77052642 -13.47373581 17.04968166 C-14.83567314 18.41183804 -14.83567314 18.41183804 -16.22512436 19.80151272 C-18.69559759 22.27227092 -21.16912492 24.73995036 -23.64324331 27.20705771 C-26.23552734 29.79305791 -28.82494852 32.38192162 -31.4146843 34.97047329 C-36.31050649 39.86319693 -41.20887045 44.75336752 -46.10816967 49.64260918 C-51.68939149 55.21262387 -57.26774803 60.78550439 -62.84587455 66.35861862 C-74.31257256 77.81488568 -85.78283478 89.26757722 -97.25547409 100.71789455 C-99.65310594 98.3202627 -99.59827995 97.38515957 -99.88047409 94.09289455 C-99.95523972 93.27562893 -100.03000534 92.4583633 -100.10703659 91.61633205 C-100.15602097 90.98984768 -100.20500534 90.3633633 -100.25547409 89.71789455 C-98.25547409 92.71789455 -98.25547409 92.71789455 -97.25547409 94.71789455 C-96.76955669 94.22736819 -96.2836393 93.73684183 -95.78299713 93.23145103 C-83.97077164 81.3089102 -72.14482636 69.40017012 -60.3033371 57.5066967 C-54.5772618 51.75481549 -48.85596708 45.99832458 -43.14561081 40.23083401 C-38.16973295 35.20519434 -33.18519332 30.18834016 -28.18995881 25.1819368 C-25.54412786 22.52957485 -22.90290803 19.8729558 -20.27200699 17.20577717 C-17.33825006 14.23189514 -14.38532963 11.27779609 -11.43027878 8.32507229 C-10.55633972 7.43315685 -9.68240067 6.54124142 -8.78197861 5.62229824 C-7.97713531 4.82432827 -7.17229202 4.0263583 -6.34305954 3.20420742 C-5.2977463 2.15198073 -5.2977463 2.15198073 -4.23131561 1.07849693 C-2.25547409 -0.28210545 -2.25547409 -0.28210545 0 0 Z " fill="#599EA6" transform="translate(242.25547409057617,143.28210544586182)"/>
<path d="M0 0 C0.99 1.485 0.99 1.485 2 3 C-15.49 20.49 -32.98 37.98 -51 56 C-63.39412228 49.23956967 -63.39412228 49.23956967 -67.98828125 46.58984375 C-69.01453613 45.99961426 -70.04079102 45.40938477 -71.09814453 44.80126953 C-73.30006917 43.52453456 -75.49745726 42.23995253 -77.69091797 40.94873047 C-83.24572772 37.6876313 -88.79360714 34.55968644 -94.58203125 31.73046875 C-108.96431307 24.47638197 -108.96431307 24.47638197 -110.92773438 19.78173828 C-111.85863293 14.66706147 -111.18914612 10.01483338 -110 5 C-109.67 5 -109.34 5 -109 5 C-109.06340576 5.85142578 -109.12681152 6.70285156 -109.19213867 7.58007812 C-109.33310204 14.5486382 -109.33310204 14.5486382 -105.83447266 20.26953125 C-102.74299878 22.25095969 -99.61649794 23.8976319 -96.3125 25.5 C-94.53795297 26.43715619 -92.76342957 27.3743692 -90.99162292 28.31669617 C-89.18365662 29.2715611 -87.36617342 30.20610161 -85.546875 31.13916016 C-80.16880624 33.92558889 -74.99948559 37.0639617 -69.8125 40.1875 C-67.2802728 41.69393062 -64.74610234 43.19658921 -62.20556641 44.68896484 C-60.78426943 45.53381372 -59.37391173 46.39748516 -57.97802734 47.28369141 C-54.78495058 49.38036181 -54.78495058 49.38036181 -51.11346436 49.88661194 C-48.10537035 48.62469709 -46.3430221 46.70134443 -44.04785156 44.38842773 C-43.5693425 43.91035675 -43.09083344 43.43228577 -42.5978241 42.93972778 C-41.02154039 41.36135786 -39.45614271 39.77263658 -37.890625 38.18359375 C-36.79840572 37.08577794 -35.70552121 35.9886236 -34.61199951 34.8921051 C-31.73825127 32.00691268 -28.87362664 29.1128243 -26.01080322 26.21679688 C-23.08687331 23.26215704 -20.15441274 20.31601101 -17.22265625 17.36914062 C-11.47338291 11.58771064 -5.73371936 5.79685575 0 0 Z " fill="#BAC3CA" transform="translate(179,125)"/>
<path d="M0 0 C2.72211838 1.32640669 5.34094536 2.7434507 7.95947266 4.26464844 C8.99426758 4.86365967 10.0290625 5.4626709 11.09521484 6.07983398 C12.19897461 6.723479 13.30273438 7.36712402 14.43994141 8.03027344 C16.15165527 9.02377808 16.15165527 9.02377808 17.89794922 10.03735352 C20.28177525 11.42116533 22.66432112 12.80714604 25.04589844 14.19482422 C28.51665602 16.21685224 31.99176824 18.23128037 35.46728516 20.24511719 C37.60417113 21.48571462 39.74089662 22.72658851 41.87744141 23.96777344 C43.36594604 24.83063965 43.36594604 24.83063965 44.88452148 25.7109375 C49.56538796 28.4380334 54.16711073 31.20444138 58.62744141 34.28027344 C58.29744141 35.60027344 57.96744141 36.92027344 57.62744141 38.28027344 C45.99868614 31.7666883 34.40716143 25.20003514 22.93994141 18.40527344 C22.02390137 17.86475342 21.10786133 17.3242334 20.1640625 16.76733398 C16.34738972 14.51044301 12.54321273 12.24382361 8.79541016 9.87402344 C7.74998047 9.22433594 6.70455078 8.57464844 5.62744141 7.90527344 C4.78181641 7.36128906 3.93619141 6.81730469 3.06494141 6.25683594 C-0.16852803 4.96137543 -1.99871178 5.50698087 -5.37255859 6.28027344 C-7.94939262 7.41273865 -7.94939262 7.41273865 -10.42724609 8.90527344 C-11.36455566 9.4432959 -12.30186523 9.98131836 -13.26757812 10.53564453 C-14.25097168 11.11137207 -15.23436523 11.68709961 -16.24755859 12.28027344 C-17.26317871 12.86244629 -18.27879883 13.44461914 -19.32519531 14.04443359 C-23.99193799 16.72134848 -28.6368341 19.43266139 -33.26318359 22.17871094 C-34.34817139 22.81292969 -34.34817139 22.81292969 -35.45507812 23.45996094 C-36.78138218 24.23614844 -38.10061893 25.02458826 -39.41113281 25.82714844 C-42.28228983 27.50153105 -43.94325492 28.32034178 -47.30224609 28.00683594 C-47.98544922 27.76707031 -48.66865234 27.52730469 -49.37255859 27.28027344 C-46.47805702 24.12612368 -43.67819385 22.15802016 -39.89208984 20.17871094 C-38.81789795 19.61023438 -37.74370605 19.04175781 -36.63696289 18.45605469 C-34.92827026 17.56466797 -34.92827026 17.56466797 -33.18505859 16.65527344 C-24.43933953 12.05066901 -15.80045106 7.38629045 -7.5378418 1.94970703 C-2.9725536 -0.90173781 -2.9725536 -0.90173781 0 0 Z " fill="#F6DFA4" transform="translate(66.37255859375,153.7197265625)"/>
<path d="M0 0 C6.64001667 -0.21118492 13.27845645 -0.36776775 19.92108154 -0.46887207 C22.19531908 -0.51098231 24.46931775 -0.56905746 26.74273682 -0.64318848 C29.98820664 -0.74558303 33.22985131 -0.78971936 36.47668457 -0.82116699 C37.45704681 -0.86444122 38.43740906 -0.90771545 39.44747925 -0.95230103 C46.05427397 -0.93424313 46.05427397 -0.93424313 48.95283508 1.95126343 C50.52163643 4.266643 51.82705028 6.5973191 53.08605957 9.09289551 C53.70762939 10.11818359 54.32919922 11.14347168 54.96960449 12.1998291 C55.49658936 13.12102539 56.02357422 14.04222168 56.56652832 14.99133301 C57.46939575 16.56334473 57.46939575 16.56334473 58.39050293 18.16711426 C59.01191162 19.25637207 59.63332031 20.34562988 60.27355957 21.46789551 C61.5909817 23.76753866 62.90869268 26.06701636 64.22668457 28.36633301 C64.87443848 29.49780762 65.52219238 30.62928223 66.1895752 31.79504395 C67.9482995 34.85334053 69.72307132 37.90136077 71.50793457 40.94445801 C72.27714233 42.25857666 72.27714233 42.25857666 73.06188965 43.59924316 C74.0168386 45.22841447 74.97487888 46.85577878 75.93640137 48.4810791 C79.08605957 53.87029254 79.08605957 53.87029254 79.08605957 56.09289551 C75.12579523 54.77280739 74.75831419 53.25293385 72.75012207 49.64367676 C72.27003189 48.79183052 72.27003189 48.79183052 71.78024292 47.92277527 C70.7484418 46.08838774 69.7292419 44.24737111 68.71105957 42.40539551 C68.07039551 41.25877441 67.42973145 40.11215332 66.76965332 38.93078613 C66.44364639 38.34396057 66.11763947 37.75713501 65.78175354 37.15252686 C65.08117914 35.91565953 64.36199902 34.68918424 63.62657166 33.47271729 C61.26021187 29.49900653 59.5335476 25.64914704 58.01208496 21.2755127 C55.47675055 14.80230392 52.89402008 9.19022582 47.08605957 5.09289551 C35.50999017 1.63397119 22.87595394 2.91772214 10.96270752 3.58227539 C6.46638132 3.8090358 1.96733656 3.90815 -2.53308105 4.01867676 C-11.33419429 4.25333808 -20.12201003 4.62768153 -28.91394043 5.09289551 C-28.91394043 3.77289551 -28.91394043 2.45289551 -28.91394043 1.09289551 C-21.10455141 0.65817803 -13.29442717 0.38200796 -5.47631836 0.16625977 C-3.65078592 0.11399237 -1.8253532 0.05819169 0 0 Z " fill="#EAF0F5" transform="translate(99.9139404296875,69.9071044921875)"/>
<path d="M0 0 C1.7841912 0.39074759 3.55796741 0.83311218 5.31567383 1.32958984 C6.93804077 1.61322422 8.56242245 1.88560403 10.1887207 2.14575195 C11.80516513 2.45998392 13.42039278 2.78053185 15.03442383 3.10693359 C15.89958618 3.27834366 16.76474854 3.44975372 17.65612793 3.62635803 C19.46150898 3.98575806 21.26631905 4.34803778 23.07055664 4.71313477 C25.83538189 5.27106686 28.60265342 5.8154566 31.37036133 6.35888672 C33.13354343 6.71159713 34.89657033 7.06508447 36.65942383 7.41943359 C37.48438354 7.5809642 38.30934326 7.74249481 39.15930176 7.90892029 C42.7387181 8.64242926 45.24175829 9.28031282 48.31567383 11.32958984 C46.31567383 13.32958984 46.31567383 13.32958984 44.37768555 13.43359375 C34.09673596 12.39849133 24.01426826 10.23675271 13.89672852 8.18994141 C11.43636109 7.69444414 8.97391535 7.2106047 6.51098633 6.72802734 C5.76197052 6.57288666 5.01295471 6.41774597 4.24124146 6.25790405 C0.24002617 5.48027584 -2.79255482 5.08621572 -6.68432617 6.32958984 C-9.29696962 8.3631227 -9.29696962 8.3631227 -11.84179688 11.03295898 C-12.33020554 11.52078354 -12.8186142 12.00860809 -13.32182312 12.51121521 C-14.92758656 14.11975674 -16.51873069 15.74198062 -18.11010742 17.36474609 C-19.22309782 18.48519984 -20.33697693 19.60477144 -21.45170593 20.72349548 C-24.37865786 23.66569621 -27.29339728 26.61971145 -30.20574951 29.57635498 C-33.18155534 32.59312948 -36.16876283 35.59856683 -39.1550293 38.60498047 C-45.0093427 44.50215147 -50.85080214 50.4118534 -56.68432617 56.32958984 C-57.34432617 55.33958984 -58.00432617 54.34958984 -58.68432617 53.32958984 C-51.99980039 46.36655312 -45.28300169 39.4367728 -38.52323437 32.54675198 C-35.38505535 29.34604397 -32.25896186 26.13519972 -29.15820312 22.89819336 C-26.16308299 19.77231487 -23.13924543 16.67702357 -20.09362221 13.60035896 C-18.93919391 12.42382226 -17.79534904 11.23680024 -16.66274071 10.0392437 C-6.65996044 -0.51348887 -6.65996044 -0.51348887 0 0 Z " fill="#A7E4EB" transform="translate(191.684326171875,132.67041015625)"/>
<path d="M0 0 C2.86477513 3.42857477 5.20603564 6.87938938 7.3984375 10.76953125 C8.04425781 11.90841797 8.69007813 13.04730469 9.35546875 14.22070312 C10.02891615 15.41781672 10.70209488 16.6150815 11.375 17.8125 C12.00277344 18.92431641 12.63054687 20.03613281 13.27734375 21.18164062 C13.59960938 21.75456345 13.921875 22.32748627 14.25390625 22.91777039 C14.94634822 24.13299486 15.6509342 25.3413634 16.36621094 26.54328918 C18.76752601 30.61987608 20.77978012 34.72651229 22.66796875 39.06713867 C28.67360062 52.14130248 28.67360062 52.14130248 40.24560547 59.87182617 C47.47692773 61.86219253 54.81645833 62.80468942 62.25 63.6875 C66.06300057 64.23334847 69.86979418 64.80863479 73.67547607 65.40327454 C76.02758772 65.76095378 78.38508799 66.0851698 80.74688721 66.37199402 C82.33059113 66.58557304 82.33059113 66.58557304 83.94628906 66.8034668 C85.34189056 66.97134956 85.34189056 66.97134956 86.76568604 67.1426239 C89 68 89 68 90.31585693 70.57478333 C90.65450775 71.77526558 90.65450775 71.77526558 91 73 C84.37873026 72.35273856 77.93884014 71.31064966 71.41796875 70.00390625 C70.44136795 69.81030014 69.46476715 69.61669403 68.45857239 69.41722107 C66.41022506 69.0098345 64.36227044 68.60046885 62.31469727 68.18920898 C59.18056319 67.56110982 56.04450608 66.94333828 52.90820312 66.32617188 C50.91133388 65.92770652 48.91458465 65.52863911 46.91796875 65.12890625 C45.51480659 64.85379967 45.51480659 64.85379967 44.08329773 64.57313538 C43.21171524 64.39632736 42.34013275 64.21951935 41.44213867 64.03735352 C40.6787468 63.88492691 39.91535492 63.73250031 39.12882996 63.57545471 C35.68135768 62.64355117 33.53462119 61.7407731 31.42285156 58.81469727 C30.9172168 57.90776123 30.41158203 57.0008252 29.890625 56.06640625 C29.30829102 55.03733154 28.72595703 54.00825684 28.12597656 52.94799805 C27.5069043 51.83078369 26.88783203 50.71356934 26.25 49.5625 C25.26000227 47.80979994 24.26995943 46.05712391 23.27752686 44.30580139 C22.5866323 43.08635301 21.89691325 41.86623795 21.20831299 40.64549255 C17.32222634 33.76689905 13.29033881 26.97623597 9.25 20.1875 C8.56403297 19.03268967 7.87815826 17.8778245 7.19238281 16.72290039 C3.80895143 10.97378397 3.80895143 10.97378397 0.23339844 5.3449707 C-0.17362305 4.57113037 -0.58064453 3.79729004 -1 3 C-0.67 2.01 -0.34 1.02 0 0 Z " fill="#787085" transform="translate(154,63)"/>
<path d="M0 0 C3.06794161 2.62646924 4.52313005 5.69118286 6.30297852 9.28125 C6.77697334 10.23099197 6.77697334 10.23099197 7.26054382 11.19992065 C8.30559517 13.29721486 9.34215235 15.39859347 10.37890625 17.5 C11.11236296 18.9750645 11.8464177 20.44983177 12.58103943 21.92431641 C14.52059819 25.82057077 16.45330535 29.72018161 18.38421631 33.62072754 C21.81216481 40.54267981 25.25161083 47.45892948 28.69140625 54.375 C29.05985405 55.11634249 29.42830185 55.85768497 29.80791473 56.62149239 C35.06095349 67.18658822 40.43759942 77.67314993 45.98788452 88.08563232 C48.78150293 93.36962699 51.45082866 98.71737147 54.125 104.0625 C54.69992188 105.20009766 55.27484375 106.33769531 55.8671875 107.50976562 C56.40859375 108.59064453 56.95 109.67152344 57.5078125 110.78515625 C57.98879395 111.74301025 58.46977539 112.70086426 58.96533203 113.68774414 C60 116 60 116 60 118 C57 117 57 117 55.31793213 114.12414551 C54.68679719 112.82775115 54.06635806 111.52611939 53.45410156 110.22070312 C52.74010223 108.74594351 52.02560092 107.27142685 51.31066895 105.79711914 C50.93436844 105.01309723 50.55806793 104.22907532 50.17036438 103.42129517 C48.195945 99.33653987 46.15220619 95.28673322 44.11621094 91.23242188 C43.23972167 89.48026738 42.36357006 87.72794394 41.48773193 85.97546387 C41.03895439 85.07790878 40.59017685 84.1803537 40.12779999 83.25559998 C27.08519999 57.17039998 14.0426 31.08519999 1 5 C-5.48477254 15.77379817 -11.62068829 26.6991475 -17.53198242 37.79882812 C-20.15458654 42.70071071 -22.79443866 47.45491665 -26 52 C-26.68847656 50.37915039 -26.68847656 50.37915039 -27 48 C-25.81933594 45.18530273 -25.81933594 45.18530273 -23.984375 41.93359375 C-23.65717468 41.34620422 -23.32997437 40.7588147 -22.99285889 40.15362549 C-21.92364033 38.24138252 -20.83721449 36.33955922 -19.75 34.4375 C-19.01401407 33.12985294 -18.27899141 31.82166327 -17.54492188 30.51293945 C-15.38097169 26.66511185 -13.19387281 22.83082744 -11 19 C-10.39220703 17.93716797 -9.78441406 16.87433594 -9.15820312 15.77929688 C-6.13352813 10.50288016 -3.08191694 5.24317649 0 0 Z " fill="#9A8FAC" transform="translate(182,13)"/>
<path d="M0 0 C0.495 1.98 0.495 1.98 1 4 C-5.83519669 8.38926846 -12.88748698 12.3311508 -20 16.25 C-22.40544815 17.57852299 -24.81021034 18.90828426 -27.21484375 20.23828125 C-27.80168442 20.56260635 -28.38852509 20.88693146 -28.9931488 21.22108459 C-32.42537694 23.12024581 -35.84576365 25.03844003 -39.25390625 26.98046875 C-39.99705078 27.40360352 -40.74019531 27.82673828 -41.50585938 28.26269531 C-42.84119683 29.02547355 -44.17465036 29.79156285 -45.50585938 30.56152344 C-49.78095541 33 -49.78095541 33 -52 33 C-52 30.69 -52 28.38 -52 26 C-51.34 26.66 -50.68 27.32 -50 28 C-33.28894814 18.74396515 -16.61319235 9.43093307 0 0 Z " fill="#CD6250" transform="translate(61,142)"/>
<path d="M0 0 C0.86354033 0.3553578 0.86354033 0.3553578 1.74452591 0.71789455 C-0.5513903 4.16176887 -1.56239633 4.2493529 -5.25547409 5.71789455 C-7.36269934 7.39303015 -7.36269934 7.39303015 -9.3359642 9.45107937 C-10.11404938 10.22793087 -10.89213455 11.00478237 -11.69379807 11.80517483 C-12.53294754 12.65825222 -13.37209702 13.51132961 -14.23667526 14.39025784 C-15.1315213 15.28787838 -16.02636734 16.18549892 -16.94832993 17.11032009 C-18.89028914 19.05836187 -20.82745043 21.01100931 -22.76101875 22.96737957 C-25.81640947 26.05859594 -28.88270233 29.13884156 -31.95061874 32.2176199 C-37.90342605 38.19453495 -43.84485681 44.18268724 -49.78529739 50.17188931 C-57.35661296 57.80408205 -64.93360026 65.4306221 -72.5196169 73.04820335 C-75.57056025 76.11256434 -78.61617666 79.18209658 -81.65775907 82.25574803 C-83.09225488 83.70395488 -84.5289771 85.14990746 -85.96673203 86.5948782 C-87.72291044 88.35999322 -89.47543754 90.12875098 -91.22373581 91.90167141 C-91.99336151 92.67288326 -92.76298721 93.44409512 -93.55593491 94.23867702 C-94.22603686 94.91451902 -94.89613882 95.59036102 -95.5865469 96.28668308 C-97.25547409 97.71789455 -97.25547409 97.71789455 -99.25547409 97.71789455 C-99.58547409 95.07789455 -99.91547409 92.43789455 -100.25547409 89.71789455 C-98.25547409 92.71789455 -98.25547409 92.71789455 -97.25547409 94.71789455 C-96.76955669 94.22736819 -96.2836393 93.73684183 -95.78299713 93.23145103 C-83.97077164 81.3089102 -72.14482636 69.40017012 -60.3033371 57.5066967 C-54.5772618 51.75481549 -48.85596708 45.99832458 -43.14561081 40.23083401 C-38.16973295 35.20519434 -33.18519332 30.18834016 -28.18995881 25.1819368 C-25.54412786 22.52957485 -22.90290803 19.8729558 -20.27200699 17.20577717 C-17.33825006 14.23189514 -14.38532963 11.27779609 -11.43027878 8.32507229 C-10.55633972 7.43315685 -9.68240067 6.54124142 -8.78197861 5.62229824 C-7.97713531 4.82432827 -7.17229202 4.0263583 -6.34305954 3.20420742 C-5.2977463 2.15198073 -5.2977463 2.15198073 -4.23131561 1.07849693 C-2.25547409 -0.28210545 -2.25547409 -0.28210545 0 0 Z " fill="#67B4BA" transform="translate(242.25547409057617,143.28210544586182)"/>
<path d="M0 0 C6.99082125 5.8870661 13.48425939 12.19276284 19.97314453 18.62304688 C21.33343224 19.96662182 22.6990826 21.30478733 24.06982422 22.63769531 C26.058668 24.57209562 28.03084768 26.52214537 30 28.4765625 C30.92631226 29.3688707 30.92631226 29.3688707 31.87133789 30.27920532 C33.5625 31.97900391 33.5625 31.97900391 36 35 C35.65234375 37.18881226 35.65234375 37.18881226 35 39 C30.00149979 34.10275558 25.01861915 29.1900247 20.04638672 24.26611328 C18.35237217 22.5922385 16.65478833 20.92196808 14.95361328 19.25537109 C12.51172074 16.86188925 10.0828756 14.45582153 7.65625 12.046875 C6.89066772 11.30193787 6.12508545 10.55700073 5.33630371 9.78948975 C4.63557739 9.08906555 3.93485107 8.38864136 3.21289062 7.66699219 C2.59111938 7.05410339 1.96934814 6.4412146 1.32873535 5.80975342 C0 4 0 4 0 0 Z " fill="#F99380" transform="translate(27,33)"/>
<path d="M0 0 C1.32 0.99 2.64 1.98 4 3 C2.02 3.99 2.02 3.99 0 5 C-0.99 4.01 -1.98 3.02 -3 2 C-2.01 1.34 -1.02 0.68 0 0 Z " fill="#B5B287" transform="translate(16,180)"/>
</svg>
