<?xml version="1.0" encoding="UTF-8"?>
<svg version="1.1" xmlns="http://www.w3.org/2000/svg" width="512" height="512">
<path d="M0 0 C1.19077148 0.07831055 2.38154297 0.15662109 3.60839844 0.23730469 C15.5760113 1.12442396 15.5760113 1.12442396 21.25 3.125 C21.641875 4.259375 22.03375 5.39375 22.4375 6.5625 C23.87935481 10.33321629 23.87935481 10.33321629 27.171875 11.390625 C32.14923916 12.70217385 32.14923916 12.70217385 37.25 13.125 C37.88035156 12.48175781 38.51070313 11.83851562 39.16015625 11.17578125 C41.25 9.125 41.25 9.125 45.01953125 8.6953125 C49.37846233 8.92350764 52.97915841 10.24707839 56.9375 12 C57.89366211 12.40412109 57.89366211 12.40412109 58.86914062 12.81640625 C61.47028899 13.91699534 64.06051073 15.04182701 66.64672852 16.17700195 C69.30623792 17.1454794 71.57951195 17.53168192 74.390625 17.80078125 C75.3703125 17.90350342 76.35 18.00622559 77.359375 18.11206055 C78.39578125 18.21945557 79.4321875 18.32685059 80.5 18.4375 C108.1150649 21.65082148 130.23298121 32.83384242 150.25 52.125 C151.01957031 52.81980469 151.78914063 53.51460937 152.58203125 54.23046875 C183.05865098 82.62040101 198.57601775 131.85433747 202.25 172.125 C202.35957031 173.27484375 202.46914063 174.4246875 202.58203125 175.609375 C203.29190646 184.12787752 203.35765714 192.58420046 203.25 201.125 C203.85585938 201.30933594 204.46171875 201.49367188 205.0859375 201.68359375 C214.85811727 205.06627136 222.76683235 211.42324147 227.3515625 220.8203125 C231.10106675 230.43860602 231.09038378 240.47401446 227.75 250.25 C223.15949202 260.48403572 215.21691502 266.54208206 205.25 271.125 C208.92446585 277.16521783 213.20256165 282.61623041 217.6875 288.0625 C233.81587047 307.68702317 233.81587047 307.68702317 233.5625 319.46875 C232.95372216 324.64336163 230.39450918 327.1885834 226.5 330.375 C200.54274325 344.3519844 155.06472919 333.00457748 128.75 325.3125 C118.26765233 322.10729413 107.66756133 317.9672023 98.2421875 312.32421875 C91.66434933 309.68793113 84.7782097 312.77295277 78.375 314.875 C46.82741355 324.73529693 13.60130526 327.31261024 -19.26220703 327.31030273 C-22.71529687 327.31247814 -26.16806055 327.3306637 -29.62109375 327.34960938 C-40.65307299 327.37885964 -51.62393345 327.17241048 -62.625 326.30078125 C-63.57592529 326.23142868 -64.52685059 326.16207611 -65.5065918 326.09062195 C-70.26592051 325.66020567 -73.91389696 325.23290162 -77.75 322.125 C-79.75 319.125 -79.75 319.125 -79.75 316.125 C-82.01786642 315.84938083 -84.28958279 315.60528543 -86.5625 315.375 C-87.82707031 315.23578125 -89.09164062 315.0965625 -90.39453125 314.953125 C-91.50183594 315.00984375 -92.60914063 315.0665625 -93.75 315.125 C-94.78040797 316.43497603 -95.77958388 317.76998327 -96.75 319.125 C-101.93577496 320.32625418 -105.66907794 319.95144619 -110.75 318.5078125 C-111.389375 318.33120087 -112.02875 318.15458923 -112.6875 317.97262573 C-114.71215491 317.41113124 -116.73104165 316.83161085 -118.75 316.25 C-120.76971226 315.67881222 -122.79043776 315.11160946 -124.8125 314.54879761 C-126.6479493 314.03630691 -128.4803283 313.51285702 -130.3125 312.98876953 C-137.99377616 310.91634935 -137.99377616 310.91634935 -145.359375 313.00390625 C-146.18614746 313.42776611 -147.01291992 313.85162598 -147.86474609 314.28833008 C-149.16919678 314.98091919 -149.16919678 314.98091919 -150.5 315.6875 C-183.05219504 332.00339933 -231.28488936 342.66227437 -267.06640625 332.46484375 C-271.34684785 330.77300614 -275.41008857 328.29236551 -277.86328125 324.32421875 C-279.77013388 319.59488823 -279.4884048 314.01661574 -278.23828125 309.12109375 C-275.58157073 303.12081584 -270.93746787 298.09373465 -266.8515625 293.015625 C-263.52150974 288.86747718 -260.31460203 284.63165488 -257.125 280.375 C-256.34382813 279.33762695 -256.34382813 279.33762695 -255.546875 278.27929688 C-252.92898806 274.84231148 -252.92898806 274.84231148 -250.75 271.125 C-251.46285156 270.77308594 -252.17570312 270.42117188 -252.91015625 270.05859375 C-263.40303592 264.6497473 -270.7439755 258.21785023 -274.53515625 246.75 C-276.95992351 236.72976973 -275.87072515 226.12685113 -270.75 217.125 C-264.870559 208.96417945 -258.27756758 204.13441582 -248.75 201.125 C-248.77320313 200.29742187 -248.79640625 199.46984375 -248.8203125 198.6171875 C-249.59653528 147.27559538 -233.54140943 91.12417 -197.40844727 53.3762207 C-176.40215648 32.03671001 -149.31216087 18.96282562 -119.125 17.875 C-113.59846581 17.47061945 -109.01449233 15.20937412 -104.06054688 12.92163086 C-72.12616387 -1.685144 -34.40341363 -2.30662287 0 0 Z " fill="#010101" transform="translate(278.75,88.875)"/>
<path d="M0 0 C3.12551907 -0.27809261 5.95519366 0.32454903 9 1 C10.134375 1.185625 11.26875 1.37125 12.4375 1.5625 C13.283125 2.036875 14.12875 2.51125 15 3 C15.17789063 4.25425781 15.35578125 5.50851563 15.5390625 6.80078125 C16.17197911 9.62030943 16.57233459 10.69205731 18.9465332 12.40161133 C21.5733431 13.61826381 24.21385973 14.64418191 26.9375 15.625 C28.86463359 16.38590673 30.79043376 17.15019981 32.71484375 17.91796875 C33.6363623 18.27681152 34.55788086 18.6356543 35.50732422 19.00537109 C59.39478836 28.53696061 76.86620112 48.80111137 87.109375 71.88623047 C99.14811157 100.45842928 101.17386696 131.51744232 101.24023438 162.16259766 C101.24996479 164.86521927 101.28113889 167.5670856 101.3125 170.26953125 C101.44033716 191.0811849 99.42995246 212.36984409 84.25097656 227.97705078 C82.85762082 229.34257714 81.42926998 230.67211078 80 232 C79.20722656 232.73734375 78.41445313 233.4746875 77.59765625 234.234375 C63.20801283 246.5888775 44.05753001 253.1130018 26 258 C25.16871582 258.2256665 24.33743164 258.45133301 23.48095703 258.68383789 C-33.75901369 273.60837013 -105.8577786 271.71074602 -158.25390625 242.25390625 C-163.26632064 239.31273747 -167.7209283 235.9300694 -172 232 C-172.78890625 231.29101562 -173.5778125 230.58203125 -174.390625 229.8515625 C-185.45277821 219.41211327 -191.98148447 205.61307131 -192.61523438 190.35986328 C-192.63444932 187.67627947 -192.62805976 185.00273805 -192.59375 182.3203125 C-192.59202933 180.85464578 -192.59211422 179.388976 -192.59387207 177.92330933 C-192.59223318 174.86914076 -192.57382608 171.81571872 -192.54199219 168.76171875 C-192.50266677 164.92849929 -192.49818974 161.09625833 -192.50506306 157.26287651 C-192.55758596 113.88566106 -187.78785833 70.86636599 -156.2890625 38.1875 C-139.66594509 21.8360114 -117.12227641 12.68437486 -94.625 7.8125 C-93.91972168 7.65765137 -93.21444336 7.50280273 -92.48779297 7.34326172 C-77.85407279 4.35672189 -63.36148996 3.69715947 -48.46801758 3.79418945 C-45.54174176 3.81263082 -42.61578152 3.81469697 -39.68945312 3.81445312 C-37.79426814 3.8193643 -35.89908525 3.82519087 -34.00390625 3.83203125 C-33.14640274 3.83314407 -32.28889923 3.8342569 -31.40541077 3.83540344 C-25.55264188 3.88064807 -19.81405616 4.34645415 -14 5 C-10.60814429 5.30675698 -7.36803296 5.59362362 -4 5 C-2.66172696 3.33729713 -1.32810215 1.67083819 0 0 Z " fill="#A1D396" transform="translate(302,100)"/>
<path d="M0 0 C-0.55349121 0.29132813 -1.10698242 0.58265625 -1.67724609 0.8828125 C-16.6186598 8.77053474 -16.6186598 8.77053474 -30 19 C-31.20076172 19.97259766 -31.20076172 19.97259766 -32.42578125 20.96484375 C-60.94486806 44.78249479 -69.48664482 84.0201776 -72.72341919 119.21426392 C-73.51174024 130.00451161 -73.4442226 140.83292759 -73.39111328 151.64599609 C-73.37379057 155.20684359 -73.3840694 158.76702359 -73.40183067 162.32784843 C-73.41274774 165.13002436 -73.40919015 167.93204527 -73.4014473 170.73422623 C-73.39854171 172.67266544 -73.4074706 174.61111128 -73.4168396 176.54953003 C-73.26413921 195.87027637 -66.09373446 211.43419173 -52.796875 225.296875 C-41.7225972 235.93111527 -28.05118282 242.25766379 -14 248 C-23.24762673 251.50219527 -40.25260062 242.83209669 -49 239 C-58.83137811 234.43574342 -67.97369059 229.37168134 -76 222 C-76.78890625 221.29101562 -77.5778125 220.58203125 -78.390625 219.8515625 C-89.45277821 209.41211327 -95.98148447 195.61307131 -96.61523438 180.35986328 C-96.63444932 177.67627947 -96.62805976 175.00273805 -96.59375 172.3203125 C-96.59202933 170.85464578 -96.59211422 169.388976 -96.59387207 167.92330933 C-96.59223318 164.86914076 -96.57382608 161.81571872 -96.54199219 158.76171875 C-96.50266677 154.92849929 -96.49818974 151.09625833 -96.50506306 147.26287651 C-96.55758596 103.88566106 -91.78785833 60.86636599 -60.2890625 28.1875 C-45.8278709 13.96261042 -27.17562925 5.84821743 -8 0 C-7.27941406 -0.23074219 -6.55882812 -0.46148437 -5.81640625 -0.69921875 C-3.62557116 -1.06200219 -2.12165348 -0.5834753 0 0 Z " fill="#8CB883" transform="translate(206,110)"/>
<path d="M0 0 C13.34314507 -0.06948378 26.68624716 -0.12280316 40.02953625 -0.15543652 C46.22524082 -0.17109819 52.4208217 -0.19234593 58.61645508 -0.22631836 C64.5946048 -0.25889345 70.57263546 -0.27684923 76.55086708 -0.28463173 C78.83265368 -0.29017853 81.11443369 -0.30100992 83.39616966 -0.31719017 C86.59002179 -0.33893946 89.78338076 -0.34196792 92.97729492 -0.34057617 C94.39501945 -0.35675491 94.39501945 -0.35675491 95.84138489 -0.3732605 C100.73748152 -0.35014573 103.99478121 -0.16109806 108 3 C106.47354957 8.42737929 102.81139612 12.03110817 99 16 C98.52046875 16.5053125 98.0409375 17.010625 97.546875 17.53125 C87.66477276 26.89324159 73.62223395 32.50242238 61 37 C59.81792969 37.42925781 58.63585937 37.85851562 57.41796875 38.30078125 C40.40415079 44.05519298 21.38599451 48.14154424 3.3984375 48.16796875 C2.59894684 48.17129715 1.79945618 48.17462555 0.97573853 48.17805481 C-0.70334299 48.18308838 -2.38243439 48.18546425 -4.06152344 48.18530273 C-6.62451537 48.18749958 -9.18708342 48.20572111 -11.75 48.22460938 C-13.38801937 48.22754202 -15.02604077 48.22952768 -16.6640625 48.23046875 C-17.42562653 48.23765427 -18.18719055 48.24483978 -18.97183228 48.25224304 C-23.09270608 48.23458009 -26.29346972 47.84594902 -30 46 C-28.54000046 41.69892028 -26.36561914 38.61909757 -23.5625 35.0625 C-23.12510498 34.50038818 -22.68770996 33.93827637 -22.23706055 33.35913086 C-19.91309232 30.38117335 -17.5478157 27.44227131 -15.140625 24.53125 C-14.66810303 23.95109131 -14.19558105 23.37093262 -13.70874023 22.77319336 C-12.82387023 21.68903806 -11.92868357 20.6131557 -11.01977539 19.54907227 C-7.81131777 15.60222318 -5.55985194 11.30411566 -3.32885742 6.75170898 C-2.84658817 5.77699268 -2.84658817 5.77699268 -2.35457611 4.78258514 C-1.56696318 3.18974902 -0.78310257 1.59505843 0 0 Z " fill="#8DB884" transform="translate(45,360)"/>
<path d="M0 0 C0.87215652 -0.00274933 1.74431305 -0.00549866 2.64289856 -0.0083313 C3.59164352 -0.00114075 4.54038849 0.0060498 5.5178833 0.01345825 C6.52308517 0.0131662 7.52828705 0.01287415 8.56394958 0.01257324 C11.88624709 0.0139665 15.20832029 0.0295277 18.53057861 0.04519653 C20.83414589 0.04892667 23.13771475 0.05177364 25.44128418 0.05377197 C31.50431702 0.06140833 37.56725404 0.08105694 43.63024902 0.10317993 C49.81706445 0.12363824 56.00389536 0.13277366 62.19073486 0.14285278 C74.33009988 0.16430275 86.46939378 0.19843881 98.60870361 0.24050903 C99.31963165 1.6879248 99.31963165 1.6879248 100.04492188 3.1645813 C100.67637592 4.44127083 101.30799687 5.71787783 101.9397583 6.99441528 C102.25097626 7.62915771 102.56219421 8.26390015 102.88284302 8.9178772 C105.16398749 13.51532398 107.58640684 17.30572273 110.85870361 21.24050903 C111.79894884 22.3940399 112.73904828 23.54768962 113.67901611 24.70144653 C114.1562915 25.27733521 114.63356689 25.85322388 115.12530518 26.44656372 C117.6976642 29.55744162 120.21836741 32.70848851 122.73370361 35.86550903 C123.20711182 36.44558716 123.68052002 37.02566528 124.16827393 37.62332153 C128.33743704 42.84169839 128.33743704 42.84169839 128.60870361 46.24050903 C125.19809365 49.651119 115.83314644 48.40094282 111.409729 48.43093872 C72.78788845 48.39850383 26.67536764 42.75003981 -2.45379639 14.55300903 C-5.27989042 11.67428755 -7.60034164 8.87526638 -9.39129639 5.24050903 C-8.39129639 2.24050903 -8.39129639 2.24050903 -6.60325241 1.06804085 C-4.23148066 0.18071915 -2.52426384 -0.00615674 0 0 Z " fill="#8DB884" transform="translate(368.39129638671875,359.7594909667969)"/>
<path d="M0 0 C5.28147648 0.98622165 10.50442202 2.11663248 15.7175293 3.41943359 C25.45058491 5.82632603 35.22193542 7.36957595 45.16577148 8.61914062 C47.14935117 8.88569109 49.12809711 9.18965883 51.10180664 9.52148438 C62.33536646 11.29699183 73.47200017 11.30373341 84.82250977 11.26074219 C88.16376122 11.25007578 91.50446851 11.26066125 94.84570312 11.2734375 C113.44609983 11.28780499 131.35779226 9.90066727 149.5625 6.0625 C150.81095703 5.81048828 152.05941406 5.55847656 153.34570312 5.29882812 C159.90003285 3.95355625 166.31929438 2.43745188 172.71069336 0.45092773 C175.22724761 -0.04476126 176.62568356 0.05991039 179 1 C180.52734375 3.109375 180.52734375 3.109375 181.9375 5.75 C184.2533909 9.86321081 186.47255682 12.88755014 190 16 C189.67 16.99 189.34 17.98 189 19 C184.94045618 20.56705795 180.65656805 21.44255993 176.42236328 22.43212891 C174.77527837 22.81825262 173.13045662 23.21413245 171.48779297 23.61865234 C156.4949159 27.30322393 141.54046264 29.3489542 126.16992188 30.71728516 C124.16992499 30.89565826 122.17095466 31.08637083 120.17382812 31.29443359 C111.59135367 32.13687593 103.03582391 32.15190013 94.42089844 32.13037109 C91.90032818 32.12505343 89.37993957 32.13032388 86.859375 32.13671875 C78.58437252 32.14055585 70.33438746 31.99702174 62.0703125 31.5546875 C61.33046112 31.51594513 60.59060974 31.47720276 59.82833862 31.43728638 C56.13394654 31.21703397 52.61303058 30.79095638 49 30 C46.96127701 29.86232001 44.91813565 29.78072384 42.875 29.75 C41.84117187 29.72421875 40.80734375 29.6984375 39.7421875 29.671875 C36.99991401 29.77154468 36.99991401 29.77154468 35.1953125 31.328125 C33.8017908 33.10378063 33.8017908 33.10378063 33 36 C20.99736438 35.0986163 20.99736438 35.0986163 17 33 C15.8125 30 15.8125 30 15 27 C10.83898673 24.22599115 6.33201588 23.60999551 1.51171875 22.58789062 C-3.29384825 21.52422456 -7.53258571 20.07415664 -12 18 C-10.69174889 15.14053687 -9.25124967 12.99552749 -7.125 10.6875 C-4.17318028 7.34499825 -2.0873475 3.93384721 0 0 Z " fill="#D7D7D7" transform="translate(167,369)"/>
<path d="M0 0 C1.89139458 0.00022659 1.89139458 0.00022659 3.82099915 0.00045776 C5.18690145 0.01066942 6.55280212 0.02110138 7.91870117 0.03173828 C9.32402851 0.03547137 10.72935846 0.03831695 12.13468933 0.04031372 C15.8221666 0.04792689 19.50948474 0.06755526 23.19689941 0.08972168 C26.96417082 0.11023019 30.73146809 0.11932611 34.4987793 0.12939453 C41.88231515 0.15080353 49.26572019 0.18491124 56.64916992 0.22705078 C57.24556274 1.87145142 57.24556274 1.87145142 57.85400391 3.54907227 C58.3883147 5.00303107 58.92291671 6.45688287 59.45776367 7.91064453 C59.84853088 8.99170471 59.84853088 8.99170471 60.24719238 10.09460449 C62.3350099 15.74219117 65.00620256 20.42631844 68.64916992 25.22705078 C69.04749023 25.83677734 69.44581055 26.44650391 69.85620117 27.07470703 C72.69897685 31.40067002 76.08647021 34.55613753 80.07495117 37.84423828 C80.59444336 38.30056641 81.11393555 38.75689453 81.64916992 39.22705078 C81.64916992 39.55705078 81.64916992 39.88705078 81.64916992 40.22705078 C70.18328594 40.34307561 58.71754241 40.43183282 47.25119019 40.48611164 C41.92644463 40.51216738 36.60210173 40.54749223 31.27758789 40.60424805 C26.13581402 40.65871086 20.99442661 40.68850157 15.85238647 40.701437 C13.89401163 40.71065125 11.93565712 40.72864475 9.97744751 40.75570107 C7.22693747 40.79218132 4.47800928 40.79698825 1.72729492 40.79467773 C0.9238414 40.81265411 0.12038788 40.83063049 -0.70741272 40.84915161 C-6.71963141 40.79476781 -10.65467999 38.94926159 -15.35083008 35.22705078 C-20.57705377 29.72576268 -21.87381049 24.44501282 -21.73364258 17.01611328 C-20.95558986 11.34744351 -17.89742121 7.69631236 -13.85083008 3.85205078 C-9.204271 0.83178738 -5.53207549 -0.02217265 0 0 Z " fill="#796053" transform="translate(40.350830078125,304.77294921875)"/>
<path d="M0 0 C8.07595493 -0.09297974 16.15168348 -0.1639056 24.2280426 -0.20724869 C27.97888189 -0.22805897 31.72935302 -0.25625467 35.47998047 -0.30175781 C39.10452862 -0.3454525 42.72872427 -0.36918636 46.35351562 -0.37950897 C47.73133894 -0.38685832 49.10914455 -0.40120946 50.48681641 -0.42292023 C66.14289596 -0.65966878 66.14289596 -0.65966878 72.5090332 5.44769287 C77.3143247 10.90850514 78.46465228 15.04754942 78.3125 22.1796875 C77.6811407 27.87770517 75.32708057 32.08426172 71.0625 35.875 C65.50187023 39.73339616 61.0311392 40.28669945 54.35424805 40.22705078 C53.4952037 40.22734283 52.63615936 40.22763489 51.75108337 40.22793579 C48.92119122 40.2265462 46.09156473 40.21100245 43.26171875 40.1953125 C41.29588464 40.19158105 39.33004867 40.1887347 37.36421204 40.18673706 C32.19716228 40.179111 27.03022544 40.15947127 21.86322021 40.1373291 C16.58786547 40.11684859 11.31249244 40.10773062 6.03710938 40.09765625 C-4.30864329 40.07622446 -14.65431224 40.04210085 -25 40 C-24.05244839 38.88009771 -23.10282684 37.7619466 -22.15234375 36.64453125 C-21.62374756 36.02167236 -21.09515137 35.39881348 -20.55053711 34.75708008 C-19 33 -19 33 -16.5625 30.6875 C-8.08493262 21.79639274 -3.81241642 11.50595041 0 0 Z " fill="#796053" transform="translate(415,305)"/>
<path d="M0 0 C10.02879916 17.56610124 17.27627336 35.8926411 22.0625 55.5625 C22.26657471 56.40022949 22.47064941 57.23795898 22.6809082 58.10107422 C23.82548553 63.17765378 24.18472666 67.79785894 24 73 C16.03406019 73.24673792 8.19296084 72.57342316 0.27563477 71.77319336 C-1.82548745 71.56118956 -3.92727802 71.35719822 -6.02929688 71.15429688 C-17.17341346 70.05718716 -17.17341346 70.05718716 -22 69 C-22.04487549 68.14994385 -22.08975098 67.2998877 -22.13598633 66.42407227 C-23.14563206 45.43834705 -23.14563206 45.43834705 -26.31640625 24.703125 C-27.21678983 19.82561852 -27.61364858 14.94126087 -28 10 C-24.08820439 8.32173077 -20.16982376 6.65942196 -16.25 5 C-15.13882812 4.52304688 -14.02765625 4.04609375 -12.8828125 3.5546875 C-11.81289063 3.10351562 -10.74296875 2.65234375 -9.640625 2.1875 C-8.16384277 1.55908203 -8.16384277 1.55908203 -6.65722656 0.91796875 C-4 0 -4 0 0 0 Z " fill="#9E8374" transform="translate(439,179)"/>
<path d="M0 0 C4.0841127 0.56883983 7.59660629 1.47858263 11.3984375 3.06640625 C12.85830078 3.6706543 12.85830078 3.6706543 14.34765625 4.28710938 C15.34667969 4.70798828 16.34570312 5.12886719 17.375 5.5625 C18.39722656 5.98724609 19.41945312 6.41199219 20.47265625 6.84960938 C22.98417905 7.89412119 25.49312619 8.94439049 28 10 C27.73104887 12.20856336 27.4596494 14.41682847 27.1875 16.625 C27.05710327 17.69004761 27.05710327 17.69004761 26.92407227 18.77661133 C26.40778953 22.93310982 25.84952491 27.0795757 25.234375 31.22265625 C25.10264893 32.12870605 24.97092285 33.03475586 24.83520508 33.96826172 C24.58283949 35.69376688 24.32312858 37.41822647 24.0534668 39.14111328 C22.62356515 49.03055848 22.39355163 59.02663042 22 69 C16.11055845 69.71585635 10.22066505 70.42782796 4.33032227 71.13623047 C2.32726409 71.37767992 0.32433269 71.6201836 -1.6784668 71.86376953 C-4.5600556 72.21404949 -7.44208159 72.56051464 -10.32421875 72.90625 C-11.21711105 73.0156189 -12.11000336 73.12498779 -13.029953 73.2376709 C-17.04208287 73.71552002 -20.95039954 74.14606314 -25 74 C-22.25162584 48.85530021 -14.13178457 21.19767686 0 0 Z " fill="#9F8374" transform="translate(73,179)"/>
<path d="M0 0 C0 8.91 0 17.82 0 27 C-15.84 27 -31.68 27 -48 27 C-48 19.74 -48 12.48 -48 5 C-25.17076709 1.97443901 -25.17076709 1.97443901 -15 0.8125 C-14.29053223 0.72887207 -13.58106445 0.64524414 -12.85009766 0.55908203 C-8.49202881 0.07345969 -4.42903291 0 0 0 Z " fill="#85685C" transform="translate(94,263)"/>
<path d="M0 0 C10.88186575 0.62996785 21.62554218 1.70009045 32.4375 3.0625 C33.9589368 3.2510354 35.48042105 3.4391882 37.00195312 3.62695312 C40.66863467 4.07955601 44.33422066 4.5399051 48 5 C48 12.26 48 19.52 48 27 C32.16 27 16.32 27 0 27 C0 18.09 0 9.18 0 0 Z " fill="#86685C" transform="translate(418,263)"/>
<path d="M0 0 C-0.46148437 0.41507813 -0.92296875 0.83015625 -1.3984375 1.2578125 C-13.38667681 12.58267098 -20.34624985 25.95702594 -27.01367188 40.84033203 C-27.96309653 42.91919602 -28.96530818 44.96244413 -30 47 C-34.93321834 46.29807915 -39.25974682 44.36469225 -43.8125 42.4375 C-44.60076172 42.10814453 -45.38902344 41.77878906 -46.20117188 41.43945312 C-48.13583796 40.63041094 -50.06815753 39.81576148 -52 39 C-52 34.11422176 -50.32034886 32.62386036 -47.125 29.3125 C-46.62613281 28.78503174 -46.12726563 28.25756348 -45.61328125 27.71411133 C-36.92512656 18.63416485 -13.79858076 -4.59952692 0 0 Z " fill="#84675B" transform="translate(136,128)"/>
<path d="M0 0 C20.762503 3.54850051 37.78310639 19.55108693 51.3828125 34.64453125 C51.91648437 35.42183594 52.45015625 36.19914062 53 37 C52 40 52 40 50.09814453 41.09082031 C49.28458496 41.41663086 48.47102539 41.74244141 47.6328125 42.078125 C46.74722656 42.43390625 45.86164063 42.7896875 44.94921875 43.15625 C43.55123047 43.69765625 43.55123047 43.69765625 42.125 44.25 C41.20074219 44.62640625 40.27648437 45.0028125 39.32421875 45.390625 C32.38736503 48.12912168 32.38736503 48.12912168 29 47 C27.89453125 44.55078125 27.89453125 44.55078125 26.8125 41.3125 C21.44888174 26.67862808 12.64395768 12.85865444 1.21484375 2.20703125 C0.81394531 1.80871094 0.41304688 1.41039062 0 1 C0 0.67 0 0.34 0 0 Z " fill="#85675C" transform="translate(376,127)"/>
<path d="M0 0 C2.19092713 1.4010293 4.17157028 2.92420952 6.16796875 4.58984375 C9.88471685 7.45070956 13.84925268 7.38576572 18.35546875 7.359375 C23.53584235 6.65539513 27.38200587 3.61799413 31 0 C34.85506762 -0.42834085 37.12800365 -0.55897202 40.4375 1.5625 C42.74371212 5.16019091 42.91190477 6.79120877 42 11 C37.13165632 17.0996812 30.60341257 21.30328311 23 23 C11.5067134 24.26968414 2.90251974 22.4179396 -6.125 15.1875 C-9.11729794 12.34349293 -9.91451726 11.39453573 -10.8125 7.25 C-9.29439334 1.17757338 -6.26026298 -1.20389673 0 0 Z " fill="#030402" transform="translate(240,272)"/>
<path d="M0 0 C0.87215652 -0.00274933 1.74431305 -0.00549866 2.64289856 -0.0083313 C3.59164352 -0.00114075 4.54038849 0.0060498 5.5178833 0.01345825 C6.52308517 0.0131662 7.52828705 0.01287415 8.56394958 0.01257324 C11.88624709 0.0139665 15.20832029 0.0295277 18.53057861 0.04519653 C20.83414589 0.04892667 23.13771475 0.05177364 25.44128418 0.05377197 C31.50431702 0.06140833 37.56725404 0.08105694 43.63024902 0.10317993 C49.81706445 0.12363824 56.00389536 0.13277366 62.19073486 0.14285278 C74.33009988 0.16430275 86.46939378 0.19843881 98.60870361 0.24050903 C98.60870361 0.57050903 98.60870361 0.90050903 98.60870361 1.24050903 C97.7739299 1.22638977 96.93915619 1.21227051 96.0790863 1.19772339 C88.12320781 1.07411935 80.16940913 1.01032473 72.2125349 1.0099144 C68.12367363 1.0076955 64.03748465 0.98418907 59.94927979 0.9079895 C41.24114133 0.57495392 26.21679586 0.32861445 11.21432495 13.06118774 C9.11903489 14.6001684 7.15951616 14.93239284 4.60870361 15.24050903 C3.2485021 17.20809176 3.2485021 17.20809176 2.60870361 19.24050903 C1.16490418 17.8511926 -0.2710715 16.45374325 -1.70379639 15.05300903 C-2.5043042 14.27570435 -3.30481201 13.49839966 -4.12957764 12.69754028 C-6.33305772 10.30377695 -7.98496262 8.17317091 -9.39129639 5.24050903 C-8.39129639 2.24050903 -8.39129639 2.24050903 -6.60325241 1.06804085 C-4.23148066 0.18071915 -2.52426384 -0.00615674 0 0 Z " fill="#779C70" transform="translate(368.39129638671875,359.7594909667969)"/>
<path d="M0 0 C13.34314507 -0.06948378 26.68624716 -0.12280316 40.02953625 -0.15543652 C46.22524082 -0.17109819 52.4208217 -0.19234593 58.61645508 -0.22631836 C64.5946048 -0.25889345 70.57263546 -0.27684923 76.55086708 -0.28463173 C78.83265368 -0.29017853 81.11443369 -0.30100992 83.39616966 -0.31719017 C86.59002179 -0.33893946 89.78338076 -0.34196792 92.97729492 -0.34057617 C94.39501945 -0.35675491 94.39501945 -0.35675491 95.84138489 -0.3732605 C100.73748152 -0.35014573 103.99478121 -0.16109806 108 3 C106.23188872 9.28661788 101.3319351 14.4453766 96 18 C96 17.34 96 16.68 96 16 C94.80375 15.690625 93.6075 15.38125 92.375 15.0625 C85.21716113 12.71454648 79.18549699 8.18991891 73 4 C69.35663549 1.57109032 67.57691694 1.72793806 63.23364258 1.68115234 C62.55045456 1.67110672 61.86726654 1.6610611 61.16337585 1.65071106 C58.90710281 1.61984114 56.65094863 1.60283368 54.39453125 1.5859375 C52.82939122 1.56722888 51.26426131 1.54765569 49.69914246 1.5272522 C45.58104412 1.47589252 41.46291306 1.43628744 37.34466553 1.39910889 C33.14180381 1.35909321 28.93907863 1.30798978 24.73632812 1.2578125 C16.49097864 1.16100783 8.24556166 1.07661769 0 1 C0 0.67 0 0.34 0 0 Z " fill="#779C70" transform="translate(45,360)"/>
<path d="M0 0 C3.79483738 0.72667099 4.70825838 1.38866448 6.9375 4.5625 C7.51347031 8.09151571 7.44967208 11.55760179 7.375 15.125 C7.38208984 16.08341797 7.38917969 17.04183594 7.39648438 18.02929688 C7.33238994 25.06489342 7.33238994 25.06489342 5.53149414 27.33422852 C3.01868538 29.27050373 0.87308781 28.97355017 -2.19140625 28.85546875 C-4.0625 28.5625 -4.0625 28.5625 -6 27.25 C-8.56209751 23.18078631 -8.35123447 18.83015383 -8.4375 14.1875 C-8.47488281 13.43210937 -8.51226562 12.67671875 -8.55078125 11.8984375 C-8.61774879 7.64227826 -8.43445925 6.04162339 -5.73046875 2.55859375 C-3.0625 0.5625 -3.0625 0.5625 0 0 Z " fill="#040604" transform="translate(333.0625,258.4375)"/>
<path d="M0 0 C2.65029494 1.99647769 4.66981602 3.58536184 5.44897461 6.92358398 C5.60095291 9.1361112 5.58419492 11.28414291 5.5 13.5 C5.50257813 14.24636719 5.50515625 14.99273437 5.5078125 15.76171875 C5.4202934 20.70654815 4.64855869 24.35144131 1 28 C-6.37831534 28.47602034 -6.37831534 28.47602034 -8.59838867 26.77612305 C-11.31294707 23.33623238 -10.46862351 18.76983246 -10.4375 14.5625 C-10.45748047 13.60794922 -10.47746094 12.65339844 -10.49804688 11.66992188 C-10.49317089 4.70214161 -10.49317089 4.70214161 -8.15625 1.375 C-5.14664491 -0.54416846 -3.50512806 -0.64379903 0 0 Z " fill="#040604" transform="translate(182,259)"/>
<path d="M0 0 C5.41555624 0.94834625 10.62758888 2.16768966 15.875 3.8125 C30.12831011 8.00650496 45.24796441 10.33444759 60 12 C60 12.66 60 13.32 60 14 C59.02417969 14.03738281 58.04835937 14.07476562 57.04296875 14.11328125 C55.13451172 14.21189453 55.13451172 14.21189453 53.1875 14.3125 C51.29064453 14.39951172 51.29064453 14.39951172 49.35546875 14.48828125 C46.07667074 14.72830173 46.07667074 14.72830173 44.11328125 16.35546875 C42.8092118 18.12244309 42.8092118 18.12244309 42 21 C29.99736438 20.0986163 29.99736438 20.0986163 26 18 C24.8125 15 24.8125 15 24 12 C20.39241206 9.59494137 16.85298281 8.90600136 12.6875 8 C7.68678962 6.89544275 2.83528533 5.72194581 -2 4 C-1.34 2.68 -0.68 1.36 0 0 Z " fill="#EAEAEA" transform="translate(158,384)"/>
<path d="M0 0 C0 1.32 0 2.64 0 4 C-36.46039205 14.31028464 -36.46039205 14.31028464 -50 13 C-47.54891343 10.0345004 -45.57902763 9.44545852 -41.8359375 8.7890625 C-40.2876123 8.50325317 -40.2876123 8.50325317 -38.70800781 8.21166992 C-37.60811523 8.01806885 -36.50822266 7.82446777 -35.375 7.625 C-26.81738448 6.0332146 -18.49487805 4.22514448 -10.21630859 1.52392578 C-6.69354168 0.39339727 -3.70608265 -0.24754369 0 0 Z " fill="#E5E5E5" transform="translate(356,384)"/>
<path d="M0 0 C21.12 0 42.24 0 64 0 C64 0.33 64 0.66 64 1 C55.12428612 3.29874604 46.51149456 3.30548603 37.40698242 3.26074219 C34.83553076 3.25009536 32.2647888 3.26064309 29.69335938 3.2734375 C19.62294749 3.28070462 9.94263702 2.64912351 0 1 C0 0.67 0 0.34 0 0 Z " fill="#D0D0D0" transform="translate(224,398)"/>
<path d="M0 0 C0.99773437 0.02320313 1.99546875 0.04640625 3.0234375 0.0703125 C4.52777344 0.09738281 4.52777344 0.09738281 6.0625 0.125 C6.83335937 0.14820313 7.60421875 0.17140625 8.3984375 0.1953125 C8.3984375 1.1853125 8.3984375 2.1753125 8.3984375 3.1953125 C3.88226151 3.27185786 -0.19241467 3.29759946 -4.6015625 2.1953125 C-2.6015625 0.1953125 -2.6015625 0.1953125 0 0 Z " fill="#CCCCCC" transform="translate(220.6015625,396.8046875)"/>
</svg>
