<?xml version="1.0" encoding="utf-8"?>
<!-- Generator: Adobe Illustrator 16.0.0, SVG Export Plug-In . SVG Version: 6.00 Build 0)  -->
<!DOCTYPE svg PUBLIC "-//W3C//DTD SVG 1.1//EN" "http://www.w3.org/Graphics/SVG/1.1/DTD/svg11.dtd">
<svg version="1.1" id="Layer_1" xmlns="http://www.w3.org/2000/svg" xmlns:xlink="http://www.w3.org/1999/xlink" x="0px" y="0px"
	 width="264.205px" height="88.25px" viewBox="0 0 264.205 88.25" enable-background="new 0 0 264.205 88.25" xml:space="preserve">
<rect fill="#633F4E" width="88.25" height="88.25"/>
<rect x="5.875" y="5" fill="#B2A8AD" width="76.5" height="78.25"/>
<polygon fill="#633F4E" points="66.5,19.5 54.5,19.5 44.125,35.102 33.75,19.5 21.75,19.5 38.125,44.125 21.75,68.75 33.75,68.75 
	44.125,53.148 54.5,68.75 66.5,68.75 50.125,44.125 "/>
<rect x="87.704" fill="#BB6E69" width="88.25" height="88.25"/>
<rect x="93.579" y="5" fill="#BDB7BD" width="76.5" height="78.25"/>
<rect x="175.955" fill="#828898" width="88.25" height="88.25"/>
<rect x="181.83" y="5" fill="#BBC1C1" width="76.5" height="78.25"/>
<polygon fill="#BB6E69" points="107.955,18.875 120.955,18.875 132.163,37.625 142.704,18.875 155.704,18.875 137.704,49.125 
	137.704,69.375 125.455,69.375 125.455,49.125 "/>
<polygon fill="#828898" points="213.661,59.625 239.321,28.708 239.622,28.708 239.622,18.875 202.872,18.875 202.872,28.708 
	225.35,28.708 199.689,59.625 199.622,59.625 199.622,69.375 240.539,69.375 240.539,59.625 "/>
</svg>
